# Tiled2Unity generated file. Do not modify by hand.
# Wavefront file for 'Jungla_mesh_0001.obj'

# Vertices (Count = 156)
v -28.875 -1.3125 0
v -33.6875 -1.3125 0
v -33.6875 0.375 0
v -28.875 0.375 0
v -38.0625 -1.3125 0
v -42.875 -1.3125 0
v -42.875 0.375 0
v -38.0625 0.375 0
v -28.875 -2.625 0
v -33.6875 -2.625 0
v -33.6875 -0.9375 0
v -28.875 -0.9375 0
v -38.0625 -2.625 0
v -42.875 -2.625 0
v -42.875 -0.9375 0
v -38.0625 -0.9375 0
v -28.875 -3.9375 0
v -33.6875 -3.9375 0
v -33.6875 -2.25 0
v -28.875 -2.25 0
v -38.0625 -3.9375 0
v -42.875 -3.9375 0
v -42.875 -2.25 0
v -38.0625 -2.25 0
v -28.875 -5.25 0
v -33.6875 -5.25 0
v -33.6875 -3.5625 0
v -28.875 -3.5625 0
v -38.0625 -5.25 0
v -42.875 -5.25 0
v -42.875 -3.5625 0
v -38.0625 -3.5625 0
v -28.875 -6.5625 0
v -33.6875 -6.5625 0
v -33.6875 -4.875 0
v -28.875 -4.875 0
v -38.0625 -6.5625 0
v -42.875 -6.5625 0
v -42.875 -4.875 0
v -38.0625 -4.875 0
v -22.3125 -7.875 0
v -27.125 -7.875 0
v -27.125 -6.1875 0
v -22.3125 -6.1875 0
v -23.625 -7.875 0
v -28.4375 -7.875 0
v -28.4375 -6.1875 0
v -23.625 -6.1875 0
v -24.9375 -7.875 0
v -29.75 -7.875 0
v -29.75 -6.1875 0
v -24.9375 -6.1875 0
v -26.25 -7.875 0
v -31.0625 -7.875 0
v -31.0625 -6.1875 0
v -26.25 -6.1875 0
v -30.1875 -7.875 0
v -35 -7.875 0
v -35 -6.1875 0
v -30.1875 -6.1875 0
v -31.5 -7.875 0
v -36.3125 -7.875 0
v -36.3125 -6.1875 0
v -31.5 -6.1875 0
v -32.8125 -7.875 0
v -37.625 -7.875 0
v -37.625 -6.1875 0
v -32.8125 -6.1875 0
v -34.125 -7.875 0
v -38.9375 -7.875 0
v -38.9375 -6.1875 0
v -34.125 -6.1875 0
v -35.4375 -7.875 0
v -40.25 -7.875 0
v -40.25 -6.1875 0
v -35.4375 -6.1875 0
v -28.875 -9.1875 0
v -33.6875 -9.1875 0
v -33.6875 -7.5 0
v -28.875 -7.5 0
v -38.0625 -9.1875 0
v -42.875 -9.1875 0
v -42.875 -7.5 0
v -38.0625 -7.5 0
v -28.875 -10.5 0
v -33.6875 -10.5 0
v -33.6875 -8.8125 0
v -28.875 -8.8125 0
v -38.0625 -10.5 0
v -42.875 -10.5 0
v -42.875 -8.8125 0
v -38.0625 -8.8125 0
v -28.875 -11.8125 0
v -33.6875 -11.8125 0
v -33.6875 -10.125 0
v -28.875 -10.125 0
v -38.0625 -11.8125 0
v -42.875 -11.8125 0
v -42.875 -10.125 0
v -38.0625 -10.125 0
v -28.875 -13.125 0
v -33.6875 -13.125 0
v -33.6875 -11.4375 0
v -28.875 -11.4375 0
v -38.0625 -13.125 0
v -42.875 -13.125 0
v -42.875 -11.4375 0
v -38.0625 -11.4375 0
v -28.875 -14.4375 0
v -33.6875 -14.4375 0
v -33.6875 -12.75 0
v -28.875 -12.75 0
v -38.0625 -14.4375 0
v -42.875 -14.4375 0
v -42.875 -12.75 0
v -38.0625 -12.75 0
v -28.875 -15.75 0
v -33.6875 -15.75 0
v -33.6875 -14.0625 0
v -28.875 -14.0625 0
v -38.0625 -15.75 0
v -42.875 -15.75 0
v -42.875 -14.0625 0
v -38.0625 -14.0625 0
v -28.875 -17.0625 0
v -33.6875 -17.0625 0
v -33.6875 -15.375 0
v -28.875 -15.375 0
v -38.0625 -17.0625 0
v -42.875 -17.0625 0
v -42.875 -15.375 0
v -38.0625 -15.375 0
v -28.875 -18.375 0
v -33.6875 -18.375 0
v -33.6875 -16.6875 0
v -28.875 -16.6875 0
v -38.0625 -18.375 0
v -42.875 -18.375 0
v -42.875 -16.6875 0
v -38.0625 -16.6875 0
v -28.875 -19.6875 0
v -33.6875 -19.6875 0
v -33.6875 -18 0
v -28.875 -18 0
v -18.375 -21 0
v -23.1875 -21 0
v -23.1875 -19.3125 0
v -18.375 -19.3125 0
v -21 -21 0
v -25.8125 -21 0
v -25.8125 -19.3125 0
v -21 -19.3125 0
v -24.9375 -21 0
v -29.75 -21 0
v -29.75 -19.3125 0
v -24.9375 -19.3125 0

# Texture cooridinates (Count = 8)
vt 0.4433594 0.2285156
vt 0.59375 0.2285156
vt 0.59375 0.2548828
vt 0.4433594 0.2548828
vt 0.04101563 0.8496094
vt 0.1914063 0.8496094
vt 0.1914063 0.8759766
vt 0.04101563 0.8759766

# Normal
vn 0 0 -1

# Mesh description
g Jungla_mesh_0001

# Faces
f 1/1/1 2/2/1 3/3/1 4/4/1
f 5/1/1 6/2/1 7/3/1 8/4/1
f 9/1/1 10/2/1 11/3/1 12/4/1
f 13/1/1 14/2/1 15/3/1 16/4/1
f 17/1/1 18/2/1 19/3/1 20/4/1
f 21/1/1 22/2/1 23/3/1 24/4/1
f 25/1/1 26/2/1 27/3/1 28/4/1
f 29/1/1 30/2/1 31/3/1 32/4/1
f 33/1/1 34/2/1 35/3/1 36/4/1
f 37/1/1 38/2/1 39/3/1 40/4/1
f 41/5/1 42/6/1 43/7/1 44/8/1
f 45/5/1 46/6/1 47/7/1 48/8/1
f 49/5/1 50/6/1 51/7/1 52/8/1
f 53/5/1 54/6/1 55/7/1 56/8/1
f 57/5/1 58/6/1 59/7/1 60/8/1
f 61/5/1 62/6/1 63/7/1 64/8/1
f 65/5/1 66/6/1 67/7/1 68/8/1
f 69/5/1 70/6/1 71/7/1 72/8/1
f 73/5/1 74/6/1 75/7/1 76/8/1
f 77/1/1 78/2/1 79/3/1 80/4/1
f 81/1/1 82/2/1 83/3/1 84/4/1
f 85/1/1 86/2/1 87/3/1 88/4/1
f 89/1/1 90/2/1 91/3/1 92/4/1
f 93/1/1 94/2/1 95/3/1 96/4/1
f 97/1/1 98/2/1 99/3/1 100/4/1
f 101/1/1 102/2/1 103/3/1 104/4/1
f 105/1/1 106/2/1 107/3/1 108/4/1
f 109/1/1 110/2/1 111/3/1 112/4/1
f 113/1/1 114/2/1 115/3/1 116/4/1
f 117/1/1 118/2/1 119/3/1 120/4/1
f 121/1/1 122/2/1 123/3/1 124/4/1
f 125/1/1 126/2/1 127/3/1 128/4/1
f 129/1/1 130/2/1 131/3/1 132/4/1
f 133/1/1 134/2/1 135/3/1 136/4/1
f 137/1/1 138/2/1 139/3/1 140/4/1
f 141/1/1 142/2/1 143/3/1 144/4/1
f 145/5/1 146/6/1 147/7/1 148/8/1
f 149/5/1 150/6/1 151/7/1 152/8/1
f 153/5/1 154/6/1 155/7/1 156/8/1

